<?xml version="1.0"?>
<svg xmlns="http://www.w3.org/2000/svg" xmlns:xlink="http://www.w3.org/1999/xlink" xmlns:svgjs="http://svgjs.com/svgjs" version="1.1" width="512" height="512" x="0" y="0" viewBox="0 0 60 60" style="enable-background:new 0 0 512 512" xml:space="preserve" class=""><g>
<g xmlns="http://www.w3.org/2000/svg">
	<g>
		<path d="M11.707,22.847c-0.391-0.391-1.023-0.391-1.414,0l-4,4c-0.391,0.391-0.391,1.023,0,1.414    C6.488,28.457,6.744,28.554,7,28.554s0.512-0.098,0.707-0.293l4-4C12.098,23.871,12.098,23.238,11.707,22.847z" fill="#1f1e26" data-original="#000000" style="" class=""/>
		<path d="M17.293,22.847l-7,7c-0.391,0.391-0.391,1.023,0,1.414c0.195,0.195,0.451,0.293,0.707,0.293s0.512-0.098,0.707-0.293l7-7    c0.391-0.391,0.391-1.023,0-1.414S17.684,22.457,17.293,22.847z" fill="#1f1e26" data-original="#000000" style="" class=""/>
		<path d="M41.707,22.847c-0.391-0.391-1.023-0.391-1.414,0l-4,4c-0.391,0.391-0.391,1.023,0,1.414    c0.195,0.195,0.451,0.293,0.707,0.293s0.512-0.098,0.707-0.293l4-4C42.098,23.871,42.098,23.238,41.707,22.847z" fill="#1f1e26" data-original="#000000" style="" class=""/>
		<path d="M47.293,22.847l-7,7c-0.391,0.391-0.391,1.023,0,1.414c0.195,0.195,0.451,0.293,0.707,0.293s0.512-0.098,0.707-0.293l7-7    c0.391-0.391,0.391-1.023,0-1.414S47.684,22.457,47.293,22.847z" fill="#1f1e26" data-original="#000000" style="" class=""/>
		<path d="M59,23.554h-1.072c-0.342-1.593-1.504-2.929-3.435-3.895c-1.467-0.733-3.128-1.105-4.937-1.105h-11.51    c-0.016,0-0.03,0.004-0.046,0.004v-0.004H22H10.489c-1.809,0-3.469,0.372-4.937,1.105c-1.931,0.966-3.093,2.301-3.435,3.895H1    c-0.552,0-1,0.448-1,1s0.448,1,1,1h1l0.001,8.054c0.105,1.967,1.546,6.056,6.246,7.446c0.879,0.26,1.798,0.39,2.735,0.39    c1.143,0,2.313-0.193,3.472-0.578c5.059-1.68,13.546-5.514,13.541-12.215c0.01-0.1,0.109-1.19,0.003-2.62    c1.14-0.863,2.922-0.852,4.046,0.033c-0.101,1.391-0.005,2.434,0.002,2.491c0,6.797,8.487,10.631,13.546,12.312    c1.159,0.385,2.329,0.578,3.472,0.578c0.937,0,1.855-0.129,2.735-0.39c4.699-1.391,6.141-5.479,6.247-7.5v-8H59    c0.553,0,1-0.448,1-1S59.553,23.554,59,23.554z M26,28.554c0,5.749-8.515,9.198-12.176,10.414    c-1.718,0.571-3.451,0.629-5.009,0.168C4.321,37.807,4.009,33.672,4,33.554v-9c0-1.249,0.823-2.293,2.447-3.105    c1.187-0.594,2.547-0.895,4.042-0.895H22c1.036,0,1.845,0.336,2.474,1.027C26.43,23.732,26.009,28.412,26,28.554z M27.689,23.91    c-0.265-1.187-0.722-2.389-1.481-3.356h7.63c-0.765,0.974-1.223,2.186-1.487,3.376C30.902,23.248,29.144,23.241,27.689,23.91z     M51.231,39.136c-1.56,0.461-3.291,0.403-5.009-0.168c-3.661-1.216-12.177-4.666-12.181-10.509    c-0.005-0.047-0.425-4.726,1.531-6.877c0.628-0.691,1.438-1.027,2.474-1.027h11.511c1.495,0,2.855,0.301,4.042,0.895    c1.553,0.776,2.365,1.768,2.434,2.945C56.023,24.448,56,24.497,56,24.554c0,0.081,0.028,0.152,0.046,0.228l0.002,8.714    C56.036,33.672,55.725,37.807,51.231,39.136z" fill="#1f1e26" data-original="#000000" style="" class=""/>
	</g>
</g>
<g xmlns="http://www.w3.org/2000/svg">
</g>
<g xmlns="http://www.w3.org/2000/svg">
</g>
<g xmlns="http://www.w3.org/2000/svg">
</g>
<g xmlns="http://www.w3.org/2000/svg">
</g>
<g xmlns="http://www.w3.org/2000/svg">
</g>
<g xmlns="http://www.w3.org/2000/svg">
</g>
<g xmlns="http://www.w3.org/2000/svg">
</g>
<g xmlns="http://www.w3.org/2000/svg">
</g>
<g xmlns="http://www.w3.org/2000/svg">
</g>
<g xmlns="http://www.w3.org/2000/svg">
</g>
<g xmlns="http://www.w3.org/2000/svg">
</g>
<g xmlns="http://www.w3.org/2000/svg">
</g>
<g xmlns="http://www.w3.org/2000/svg">
</g>
<g xmlns="http://www.w3.org/2000/svg">
</g>
<g xmlns="http://www.w3.org/2000/svg">
</g>
</g></svg>
